Coordinates
version=1
nRows=19
nColumns=27
inDegrees=yes

Units are S.I. units (second, meters, Newtons, ...)
If the header above contains a line with 'inDegrees', this indicates whether rotational values are in degrees (yes) or radians (no).

endheader
time	pelvis_rotation	pelvis_tilt	pelvis_list	pelvis_tx	pelvis_ty	pelvis_tz	hip_flexion_r	hip_adduction_r	hip_rotation_r	knee_angle_r	knee_rotation_r	knee_adduction_r	knee_angle_r_beta	ankle_angle_r	subtalar_angle_r	mtp_angle_r	hip_flexion_l	hip_adduction_l	hip_rotation_l	knee_angle_l	knee_rotation_l	knee_adduction_l	knee_angle_l_beta	ankle_angle_l	subtalar_angle_l	mtp_angle_l
      2.29500000	      1.96238500	    -19.87372942	     -5.10184888	      0.05079743	      0.82927816	     -1.17888861	     34.09019925	    -21.21165919	    -30.16152437	     27.03484110	      0.00000000	   -718.36433618	      0.47184699	      0.29858421	      0.00000000	      0.00000000	     42.94538831	    -25.10921015	      1.47781604	     28.53253816	      0.00000000	      3.27372351	      0.49798673	      2.17973706	      0.00000000	      0.00000000
      2.30000000	      0.91521817	    -23.97847943	     -4.24591428	      0.04264432	      0.82716784	     -1.18037837	     40.91437907	    -22.33053043	    -26.54279692	     29.56989813	      0.00000000	   -719.60900227	      0.51609208	      0.74451981	      0.00000000	      0.00000000	     47.92248476	    -24.32710725	      1.62832779	     30.02378885	      0.00000000	      3.98931379	      0.52401397	      2.26971037	      0.00000000	      0.00000000
      2.30500000	      1.81827386	    -20.51258782	     -4.59703627	      0.04866910	      0.82802145	     -1.17971373	     35.74999772	    -22.04589363	    -29.30487270	     28.31071928	      0.00000000	   -718.27267426	      0.49411527	      0.52662909	      0.00000000	      0.00000000	     43.91728677	    -24.73136742	      1.09736841	     29.14003437	      0.00000000	      2.93663908	      0.50858954	      2.25834120	      0.00000000	      0.00000000
      2.31000000	      0.31728144	    -20.88208184	     -3.58035185	      0.04628928	      0.82698610	     -1.18078043	     38.14316999	    -22.66871726	    -25.81981201	     29.57998414	      0.00000000	   -719.00948781	      0.51626812	      0.72174661	      0.00000000	      0.00000000	     43.54882930	    -24.58859549	     -1.48223761	     29.31030114	      0.00000000	      2.45498795	      0.51156126	      2.35289387	      0.00000000	      0.00000000
      2.31500000	      1.47359171	    -21.14615501	     -3.92285568	      0.04630323	      0.82649645	     -1.18065251	     37.71887332	    -22.98369361	    -27.96612084	     29.78164805	      0.00000000	   -718.22869372	      0.51978782	      0.77065327	      0.00000000	      0.00000000	     44.77351260	    -24.35169393	      0.28379451	     29.78341478	      0.00000000	      2.49901875	      0.51981865	      2.34943171	      0.00000000	      0.00000000
      2.32000000	      0.99798945	    -21.34104462	     -3.50165264	      0.04514449	      0.82564592	     -1.18114134	     38.82371697	    -23.38550791	    -26.76318070	     30.54970150	      0.00000000	   -718.30603514	      0.53319288	      0.88030736	      0.00000000	      0.00000000	     44.88501035	    -24.27800782	     -0.68083074	     30.06998857	      0.00000000	      2.12857037	      0.52482031	      2.44404556	      0.00000000	      0.00000000
      2.32500000	      0.48983801	    -21.54044621	     -2.94529151	      0.04391127	      0.82468111	     -1.18172791	     40.07166473	    -23.90103683	    -25.41365540	     31.43625565	      0.00000000	   -718.35831809	      0.54866617	      1.03382324	      0.00000000	      0.00000000	     44.93369801	    -24.11948560	     -1.78758625	     30.34192264	      0.00000000	      1.76050810	      0.52956645	      2.51040328	      0.00000000	      0.00000000
      2.33000000	      1.10607429	    -21.82394171	     -3.00365392	      0.04328234	      0.82381588	     -1.18183866	     40.27726332	    -24.30941368	    -26.32879336	     31.93213890	      0.00000000	   -717.90597990	      0.55732096	      1.15805430	      0.00000000	      0.00000000	     45.91208924	    -23.91378041	     -0.95043235	     30.87505860	      0.00000000	      1.57560461	      0.53887143	      2.60520796	      0.00000000	      0.00000000
      2.33500000	      0.62361384	    -21.96847662	     -2.47761251	      0.04216469	      0.82273561	     -1.18234041	     41.45356087	    -24.79083434	    -25.04819152	     32.80674782	      0.00000000	   -717.90317762	      0.57258577	      1.31308111	      0.00000000	      0.00000000	     45.94848703	    -23.81023009	     -2.07052217	     31.19561412	      0.00000000	      1.13195175	      0.54446618	      2.69465983	      0.00000000	      0.00000000
      2.34000000	      0.32124744	    -22.16798543	     -2.18994690	      0.04110394	      0.82161831	     -1.18266710	     42.44455471	    -25.10712350	    -24.20023313	     33.56321208	      0.00000000	   -717.83995403	      0.58578856	      1.43644119	      0.00000000	      0.00000000	     46.27672766	    -23.81682398	     -2.75280399	     31.64297957	      0.00000000	      0.69569668	      0.55227418	      2.83413672	      0.00000000	      0.00000000
      2.34500000	      0.67312916	    -22.31788496	     -2.12177993	      0.04052290	      0.82053609	     -1.18281854	     42.77736038	    -25.54648998	    -24.64567549	     34.17022680	      0.00000000	   -717.43719583	      0.59638296	      1.60873600	      0.00000000	      0.00000000	     46.95285853	    -23.68014567	     -2.44156750	     32.17014630	      0.00000000	      0.38655824	      0.56147497	      2.92577041	      0.00000000	      0.00000000
      2.35000000	      0.51881557	    -22.41184587	     -1.87835802	      0.03974544	      0.81935522	     -1.18306044	     43.51332213	    -25.89209295	    -24.11676969	     34.87642747	      0.00000000	   -717.23925515	      0.60870849	      1.73077872	      0.00000000	      0.00000000	     47.24760528	    -23.68440260	     -2.98852836	     32.63782470	      0.00000000	     -0.10384873	      0.56963750	      3.10695909	      0.00000000	      0.00000000
      2.35500000	      0.63273090	    -22.46837479	     -1.68383014	      0.03911783	      0.81809164	     -1.18325832	     44.00672109	    -26.34069476	    -24.09249673	     35.57550933	      0.00000000	   -716.88000339	      0.62090977	      1.91509137	      0.00000000	      0.00000000	     47.66566871	    -23.59687318	     -3.14687013	     33.15158062	      0.00000000	     -0.53584732	      0.57860423	      3.25423212	      0.00000000	      0.00000000
      2.36000000	      0.52740066	    -22.56816897	     -1.47484595	      0.03837259	      0.81680721	     -1.18346305	     44.71621563	    -26.69195773	    -23.70243410	     36.29327283	      0.00000000	   -716.61065965	      0.63343711	      2.05375776	      0.00000000	      0.00000000	     48.01143587	    -23.60757244	     -3.55729077	     33.63517354	      0.00000000	     -0.96478926	      0.58704452	      3.40315512	      0.00000000	      0.00000000
      2.36500000	      0.63967766	    -22.47436775	     -1.18819215	      0.03792314	      0.81544533	     -1.18365685	     45.10180900	    -27.22277598	    -23.62573135	     37.02110372	      0.00000000	   -716.21485732	      0.64614015	      2.27733827	      0.00000000	      0.00000000	     48.20466078	    -23.48175644	     -3.87147382	     34.11613057	      0.00000000	     -1.46080163	      0.59543881	      3.56954325	      0.00000000	      0.00000000
      2.37000000	      0.41904058	    -22.45281818	     -0.93261296	      0.03728198	      0.81406387	     -1.18382403	     45.78757836	    -27.53897835	    -23.02247084	     37.74366446	      0.00000000	   -715.98642184	      0.65875122	      2.43010522	      0.00000000	      0.00000000	     48.34426568	    -23.56146356	     -4.56395387	     34.59972270	      0.00000000	     -2.01339036	      0.60387908	      3.74067472	      0.00000000	      0.00000000
      2.37500000	      0.66561642	    -22.39616655	     -0.77184868	      0.03688841	      0.81268386	     -1.18392398	     46.03890194	    -28.03674319	    -23.27032050	     38.40521292	      0.00000000	   -715.50800009	      0.67029742	      2.63321533	      0.00000000	      0.00000000	     48.69897876	    -23.45931229	     -4.56223685	     35.10826052	      0.00000000	     -2.42963527	      0.61275474	      3.90353784	      0.00000000	      0.00000000
      2.38000000	      0.66787282	    -22.29002175	     -0.48715087	      0.03645603	      0.81126913	     -1.18408359	     46.48669422	    -28.50719912	    -23.03183837	     39.11579285	      0.00000000	   -715.13315000	      0.68269937	      2.82593107	      0.00000000	      0.00000000	     48.80178873	    -23.40832120	     -5.01796619	     35.55135701	      0.00000000	     -2.92586379	      0.62048823	      4.06874547	      0.00000000	      0.00000000
      2.38500000	      1.02071199	    -22.26371960	     -0.52180377	      0.03606999	      0.80992187	     -1.18403300	     46.55003681	    -28.88163089	    -23.57918303	     39.65043535	      0.00000000	   -714.67295530	      0.69203065	      2.99037083	      0.00000000	      0.00000000	     49.34218587	    -23.39682310	     -4.70480164	     36.11327079	      0.00000000	     -3.32023072	      0.63029548	      4.23178824	      0.00000000	      0.00000000
